<svg class="e-font-icon-svg e-e-search" viewBox="0 0 1024 1024" xmlns="http://www.w3.org/2000/svg"><path d="M421.109 0c232.181 0 421.088 188.885 421.088 421.088 0 0.128 0 0.331 0 0.437 0 95.147-32.427 187.541-91.893 261.835l263.029 264.736-65.461 65.056-262.635-264.331c-74.581 60.341-167.723 93.355-263.691 93.355-0.096 0-0.363 0-0.469 0-232.181 0-421.077-188.917-421.077-421.099s188.896-421.067 421.077-421.067h0.021l0.011-0.011zM421.109 92.288c-181.291 0-328.789 147.499-328.789 328.8 0 181.291 147.499 328.789 328.789 328.789s328.789-147.499 328.789-328.789c0-181.301-147.488-328.8-328.789-328.8z"/></svg>