<svg aria-hidden="true" class="e-font-icon-svg e-truck1" viewBox="0 0 1024 1024" xmlns="http://www.w3.org/2000/svg"><path d="M640 640h-554.667v-469.333h554.667v170.667zM725.333 384h110.336l102.997 102.997v153.003h-213.333zM298.667 789.333c0 17.664-7.125 33.621-18.731 45.269s-27.605 18.731-45.269 18.731-33.621-7.125-45.269-18.731-18.731-27.605-18.731-45.269 7.125-33.621 18.731-45.269 27.605-18.731 45.269-18.731 33.621 7.125 45.269 18.731 18.731 27.605 18.731 45.269zM938.667 789.333c0-22.912-5.163-44.587-14.379-64h57.045c23.552 0 42.667-19.115 42.667-42.667v-213.333c0-10.923-4.181-21.845-12.501-30.165l-128-128c-7.723-7.723-18.389-12.501-30.165-12.501h-128v-170.667c0-23.552-19.115-42.667-42.667-42.667h-640c-23.552 0-42.667 19.115-42.667 42.667v554.667c0 23.552 19.115 42.667 42.667 42.667h57.045c-9.216 19.413-14.379 41.088-14.379 64 0 41.216 16.768 78.635 43.733 105.6s64.384 43.733 105.6 43.733 78.635-16.768 105.6-43.733 43.733-64.384 43.733-105.6c0-22.912-5.163-44.587-14.379-64h284.757c-9.216 19.413-14.379 41.088-14.379 64 0 41.216 16.768 78.635 43.733 105.6s64.384 43.733 105.6 43.733 78.635-16.768 105.6-43.733 43.733-64.384 43.733-105.6zM853.333 789.333c0 17.664-7.125 33.621-18.731 45.269s-27.605 18.731-45.269 18.731-33.621-7.125-45.269-18.731-18.731-27.605-18.731-45.269 7.125-33.621 18.731-45.269 27.605-18.731 45.269-18.731 33.621 7.125 45.269 18.731 18.731 27.605 18.731 45.269z"/></svg>