<svg class="e-font-icon-svg e-d-search" viewBox="0 0 1024 1024" xmlns="http://www.w3.org/2000/svg"><path d="M687.083 684c68.331-69.195 103.115-158.688 104.117-247.723 1.003-89.536-32.149-178.688-99.712-246.24-67.552-67.552-156.715-100.715-246.251-99.701-89.696 1.003-179.872 36.299-249.259 105.643l0.053 0.053c-69.376 69.387-104.704 159.541-105.707 249.184-1.013 89.547 32.139 178.699 99.701 246.261s156.715 100.715 246.251 99.712c89.717-1.003 179.915-36.331 249.312-105.696l1.493-1.493zM845.301 436.704c-1.067 95.147-35.424 190.603-102.859 267.317l245.365 245.376-38.4 38.411-245.387-245.387c-76.704 67.435-172.16 101.813-267.317 102.88-103.669 1.163-206.891-37.216-285.088-115.413s-116.565-181.419-115.403-285.088c1.163-103.573 41.728-207.488 121.419-287.179h0.107c79.691-79.68 183.563-120.245 287.072-121.397 103.669-1.163 206.891 37.205 285.088 115.403 78.197 78.187 116.576 181.408 115.403 285.077z"/></svg>